{
  "accessors": [
    {
      "bufferView": 2,
      "componentType": 5126,
      "count": 30305,
      "max": [
        1.4486219882965088,
        4.1564202308654785,
        1.363476037979126
      ],
      "min": [
        -1.4447610378265381,
        -4.0295991897583008,
        -1.2191410064697266
      ],
      "type": "VEC3"
    },
    {
      "bufferView": 2,
      "byteOffset": 363660,
      "componentType": 5126,
      "count": 30305,
      "max": [
        0.99999213218688965,
        0.9999842643737793,
        0.99997413158416748
      ],
      "min": [
        -0.99857646226882935,
        -0.99999153614044189,
        -0.99982613325119019
      ],
      "type": "VEC3"
    },
    {
      "bufferView": 3,
      "componentType": 5126,
      "count": 30305,
      "max": [
        0.99999964237213135,
        0.99987626075744629,
        0.99918365478515625,
        1
      ],
      "min": [
        -0.99986934661865234,
        -0.99999159574508667,
        -0.99999493360519409,
        -1
      ],
      "type": "VEC4"
    },
    {
      "bufferView": 1,
      "componentType": 5126,
      "count": 30305,
      "max": [
        0.87643700838088989,
        0.94524097442626953
      ],
      "min": [
        0.12034100294113159,
        0.056285999715328217
      ],
      "type": "VEC2"
    },
    {
      "bufferView": 0,
      "componentType": 5125,
      "count": 179712,
      "max": [
        30304
      ],
      "min": [
        0
      ],
      "type": "SCALAR"
    },
    {
      "bufferView": 2,
      "byteOffset": 727320,
      "componentType": 5126,
      "count": 5596,
      "max": [
        5.8755650520324707,
        4.4542331695556641,
        0.94456499814987183
      ],
      "min": [
        -1.3260359764099121,
        -3.5875980854034424,
        -1.9011149406433105
      ],
      "type": "VEC3"
    },
    {
      "bufferView": 2,
      "byteOffset": 794472,
      "componentType": 5126,
      "count": 5596,
      "max": [
        0.9999394416809082,
        0.99981313943862915,
        0.99998438358306885
      ],
      "min": [
        -0.99673324823379517,
        -0.99961954355239868,
        -0.99999880790710449
      ],
      "type": "VEC3"
    },
    {
      "bufferView": 3,
      "byteOffset": 484880,
      "componentType": 5126,
      "count": 5596,
      "max": [
        0.99988895654678345,
        0.98054724931716919,
        0.99547582864761353,
        1
      ],
      "min": [
        -0.99935817718505859,
        -0.98344504833221436,
        -0.99997615814208984,
        1
      ],
      "type": "VEC4"
    },
    {
      "bufferView": 1,
      "byteOffset": 242440,
      "componentType": 5126,
      "count": 5596,
      "max": [
        0.92821198701858521,
        0.96519798040390015
      ],
      "min": [
        0.054703999310731888,
        0.041032001376152039
      ],
      "type": "VEC2"
    },
    {
      "bufferView": 0,
      "byteOffset": 718848,
      "componentType": 5125,
      "count": 30144,
      "max": [
        5595
      ],
      "min": [
        0
      ],
      "type": "SCALAR"
    }
  ],
  "asset": {
    "extras": {
      "author": "OTZ (https://sketchfab.com/OTZ_3D)",
      "license": "CC-BY-4.0 (http://creativecommons.org/licenses/by/4.0/)",
      "source": "https://sketchfab.com/3d-models/snickers-72eb73ebc3714fadade8e6bebcb82031",
      "title": "SNICKERS"
    },
    "generator": "Sketchfab-9.94.0",
    "version": "2.0"
  },
  "bufferViews": [
    {
      "buffer": 0,
      "byteLength": 839424,
      "byteOffset": 0,
      "name": "floatBufferViews",
      "target": 34963
    },
    {
      "buffer": 0,
      "byteLength": 287208,
      "byteOffset": 839424,
      "byteStride": 8,
      "name": "floatBufferViews",
      "target": 34962
    },
    {
      "buffer": 0,
      "byteLength": 861624,
      "byteOffset": 1126632,
      "byteStride": 12,
      "name": "floatBufferViews",
      "target": 34962
    },
    {
      "buffer": 0,
      "byteLength": 574416,
      "byteOffset": 1988256,
      "byteStride": 16,
      "name": "floatBufferViews",
      "target": 34962
    }
  ],
  "buffers": [
    {
      "byteLength": 2562672,
      "uri": "scene.bin"
    }
  ],
  "images": [
    {
      "uri": "textures/material_baseColor.png"
    },
    {
      "uri": "textures/material_normal.png"
    },
    {
      "uri": "textures/LOGO_baseColor.png"
    },
    {
      "uri": "textures/LOGO_normal.png"
    }
  ],
  "materials": [
    {
      "doubleSided": true,
      "name": "material",
      "normalTexture": {
        "index": 1,
        "scale": 1,
        "texCoord": 0
      },
      "pbrMetallicRoughness": {
        "baseColorFactor": [
          1,
          1,
          1,
          1
        ],
        "baseColorTexture": {
          "index": 0,
          "texCoord": 0
        },
        "metallicFactor": 0,
        "roughnessFactor": 0.53011661770000007
      }
    },
    {
      "alphaMode": "BLEND",
      "doubleSided": true,
      "name": "LOGO",
      "normalTexture": {
        "index": 3,
        "scale": 1,
        "texCoord": 0
      },
      "pbrMetallicRoughness": {
        "baseColorFactor": [
          1,
          1,
          1,
          1
        ],
        "baseColorTexture": {
          "index": 2,
          "texCoord": 0
        },
        "metallicFactor": 0.27531784110000002,
        "roughnessFactor": 0.15314588159999998
      }
    }
  ],
  "meshes": [
    {
      "primitives": [
        {
          "attributes": {
            "NORMAL": 1,
            "POSITION": 0,
            "TANGENT": 2,
            "TEXCOORD_0": 3
          },
          "indices": 4,
          "material": 1,
          "mode": 4
        }
      ]
    },
    {
      "primitives": [
        {
          "attributes": {
            "NORMAL": 6,
            "POSITION": 5,
            "TANGENT": 7,
            "TEXCOORD_0": 8
          },
          "indices": 9,
          "material": 0,
          "mode": 4
        }
      ]
    }
  ],
  "nodes": [
    {
      "children": [
        1
      ],
      "name": "RootNode (gltf orientation matrix)",
      "rotation": [
        -0.70710678118654746,
        -0,
        -0,
        0.70710678118654757
      ]
    },
    {
      "children": [
        2
      ],
      "name": "RootNode (model correction matrix)"
    },
    {
      "children": [
        3,
        4
      ],
      "name": "p-snickers_1.14.obj.cleaner.materialmerger.gles"
    },
    {
      "mesh": 0,
      "name": ""
    },
    {
      "mesh": 1,
      "name": ""
    }
  ],
  "samplers": [
    {
      "magFilter": 9729,
      "minFilter": 9987,
      "wrapS": 10497,
      "wrapT": 10497
    }
  ],
  "scene": 0,
  "scenes": [
    {
      "name": "OSG_Scene",
      "nodes": [
        0
      ]
    }
  ],
  "textures": [
    {
      "sampler": 0,
      "source": 0
    },
    {
      "sampler": 0,
      "source": 1
    },
    {
      "sampler": 0,
      "source": 2
    },
    {
      "sampler": 0,
      "source": 3
    }
  ]
}

